<svg width="14" height="13" viewBox="0 0 14 13" fill="none" xmlns="http://www.w3.org/2000/svg">
<path d="M9.91536 6.50004C9.91536 8.11087 8.60953 9.41671 6.9987 9.41671C5.38787 9.41671 4.08203 8.11087 4.08203 6.50004C4.08203 4.88921 5.38787 3.58337 6.9987 3.58337" stroke="#F8910B" stroke-width="1.2" stroke-linecap="round"/>
<path d="M8.16602 0.783375C7.78905 0.706856 7.39889 0.666687 6.99935 0.666687C3.77769 0.666687 1.16602 3.27836 1.16602 6.50002C1.16602 9.72168 3.77769 12.3334 6.99935 12.3334C10.221 12.3334 12.8327 9.72168 12.8327 6.50002C12.8327 6.10048 12.7925 5.71032 12.716 5.33335" stroke="#F8910B" stroke-width="1.2" stroke-linecap="round"/>
<path d="M9.68516 3.81486L7 6.50002M9.68516 3.81486L9.49558 3.08827C9.35197 2.53785 9.54855 1.90286 10.0034 1.44803L10.6739 0.777555C10.8524 0.599025 11.1288 0.643175 11.1851 0.859228L11.4863 2.01367L12.6408 2.31488C12.8568 2.37125 12.901 2.64764 12.7225 2.82616L12.052 3.49664C11.5972 3.95147 10.9622 4.14805 10.4117 4.00444L9.68516 3.81486Z" stroke="#F8910B" stroke-width="1.2" stroke-linecap="round" stroke-linejoin="round"/>
</svg>
