<svg width="14" height="13" viewBox="0 0 14 13" fill="none" xmlns="http://www.w3.org/2000/svg">
<path d="M10.4974 0.666016V5.33268M12.8307 2.99935L8.16406 2.99935" stroke="#F8910B" stroke-width="1.2" stroke-linecap="round" stroke-linejoin="round"/>
<path d="M1.16406 2.99935C1.16406 2.18261 1.16406 1.77423 1.32301 1.46228C1.46283 1.18788 1.68592 0.96478 1.96033 0.824964C2.27228 0.666016 2.68065 0.666016 3.4974 0.666016C4.31414 0.666016 4.72251 0.666016 5.03447 0.824964C5.30887 0.96478 5.53197 1.18788 5.67178 1.46228C5.83073 1.77423 5.83073 2.18261 5.83073 2.99935C5.83073 3.81609 5.83073 4.22446 5.67178 4.53642C5.53197 4.81082 5.30887 5.03392 5.03447 5.17373C4.72251 5.33268 4.31414 5.33268 3.4974 5.33268C2.68065 5.33268 2.27228 5.33268 1.96033 5.17373C1.68592 5.03392 1.46283 4.81082 1.32301 4.53642C1.16406 4.22446 1.16406 3.81609 1.16406 2.99935Z" stroke="#F8910B" stroke-width="1.2"/>
<path d="M1.16406 9.99935C1.16406 9.18261 1.16406 8.77423 1.32301 8.46228C1.46283 8.18788 1.68592 7.96478 1.96033 7.82496C2.27228 7.66602 2.68065 7.66602 3.4974 7.66602C4.31414 7.66602 4.72251 7.66602 5.03447 7.82496C5.30887 7.96478 5.53197 8.18788 5.67178 8.46228C5.83073 8.77423 5.83073 9.18261 5.83073 9.99935C5.83073 10.8161 5.83073 11.2245 5.67178 11.5364C5.53197 11.8108 5.30887 12.0339 5.03447 12.1737C4.72251 12.3327 4.31414 12.3327 3.4974 12.3327C2.68065 12.3327 2.27228 12.3327 1.96033 12.1737C1.68592 12.0339 1.46283 11.8108 1.32301 11.5364C1.16406 11.2245 1.16406 10.8161 1.16406 9.99935Z" stroke="#F8910B" stroke-width="1.2"/>
<path d="M8.16406 9.99935C8.16406 9.18261 8.16406 8.77423 8.32301 8.46228C8.46283 8.18788 8.68592 7.96478 8.96033 7.82496C9.27228 7.66602 9.68065 7.66602 10.4974 7.66602C11.3141 7.66602 11.7225 7.66602 12.0345 7.82496C12.3089 7.96478 12.532 8.18788 12.6718 8.46228C12.8307 8.77423 12.8307 9.18261 12.8307 9.99935C12.8307 10.8161 12.8307 11.2245 12.6718 11.5364C12.532 11.8108 12.3089 12.0339 12.0345 12.1737C11.7225 12.3327 11.3141 12.3327 10.4974 12.3327C9.68065 12.3327 9.27228 12.3327 8.96033 12.1737C8.68592 12.0339 8.46283 11.8108 8.32301 11.5364C8.16406 11.2245 8.16406 10.8161 8.16406 9.99935Z" stroke="#F8910B" stroke-width="1.2"/>
</svg>
