<svg width="18" height="20" viewBox="0 0 18 20" fill="none" xmlns="http://www.w3.org/2000/svg">
<path d="M7.57908 11.6803C7.54105 10.8537 6.97622 10.8334 6.21 10.8334C5.02967 10.8334 4.83398 11.1153 4.83398 12.2223V13.6112C4.83398 14.7181 5.02967 15 6.21 15C6.97622 15 7.54105 14.9797 7.57908 14.1531M16.5007 10.8334L15.281 14.0936C15.055 14.6979 14.942 15 14.763 15C14.584 15 14.471 14.6979 14.2449 14.0936L13.0253 10.8334M11.2685 10.8334H10.458C10.1342 10.8334 9.97225 10.8334 9.84452 10.8862C9.40952 11.0663 9.41544 11.4895 9.41544 11.8751C9.41544 12.2607 9.40952 12.6838 9.84452 12.8639C9.97225 12.9167 10.1342 12.9167 10.458 12.9167C10.7819 12.9167 10.9438 12.9167 11.0716 12.9696C11.5066 13.1496 11.5007 13.5728 11.5007 13.9584C11.5007 14.344 11.5066 14.7672 11.0716 14.9472C10.9438 15 10.7819 15 10.458 15H9.57537" stroke="#05011C" stroke-width="1.5" stroke-linecap="round"/>
<path d="M11.4993 18.3334H7.93874C5.22107 18.3334 3.86224 18.3334 2.91857 17.6685C2.6482 17.478 2.40817 17.2521 2.20577 16.9976C1.49935 16.1095 1.49935 14.8306 1.49935 12.2728V10.1516C1.49935 7.68225 1.49935 6.44759 1.89013 5.4615C2.51836 3.87623 3.84696 2.62578 5.53132 2.0345C6.57904 1.66671 7.89086 1.66671 10.5145 1.66671C12.0137 1.66671 12.7633 1.66671 13.362 1.87687C14.3245 2.21475 15.0837 2.92929 15.4427 3.83516C15.666 4.39864 15.666 5.10416 15.666 6.51519V8.33337" stroke="#05011C" stroke-width="1.5" stroke-linecap="round" stroke-linejoin="round"/>
<path d="M1.50065 10C1.50065 8.46588 2.7443 7.22222 4.27843 7.22222C4.83325 7.22222 5.48735 7.31944 6.02679 7.1749C6.50608 7.04647 6.88045 6.6721 7.00888 6.1928C7.15342 5.65336 7.05621 4.99926 7.05621 4.44444C7.05621 2.91032 8.29986 1.66667 9.83398 1.66667" stroke="#05011C" stroke-width="1.5" stroke-linecap="round" stroke-linejoin="round"/>
</svg>
