<svg width="12" height="13" viewBox="0 0 12 13" fill="none" xmlns="http://www.w3.org/2000/svg">
<path d="M11.25 1.83203C8.33333 1.83203 7.15453 4.18963 6 6.4987C4.84547 8.80776 3.66667 11.1654 0.75 11.1654" stroke="#F8910B" stroke-width="1.2" stroke-linecap="round" stroke-linejoin="round"/>
<path d="M4.83594 11.1667H6.0026M7.7526 11.1667L8.91927 11.1667M8.91927 11.1667C8.91927 11.811 9.44161 12.3333 10.0859 12.3333C10.7303 12.3333 11.2526 11.811 11.2526 11.1667C11.2526 10.5223 10.7303 10 10.0859 10C9.44161 10 8.91927 10.5223 8.91927 11.1667Z" stroke="#F8910B" stroke-width="1.2" stroke-linecap="round" stroke-linejoin="round"/>
<path d="M6 1.83268H7.16667M3.08333 1.83268L4.25 1.83268M3.08333 1.83268C3.08333 2.47701 2.561 2.99935 1.91667 2.99935C1.27233 2.99935 0.75 2.47701 0.75 1.83268C0.75 1.18835 1.27233 0.666016 1.91667 0.666016C2.561 0.666016 3.08333 1.18835 3.08333 1.83268Z" stroke="#F8910B" stroke-width="1.2" stroke-linecap="round" stroke-linejoin="round"/>
</svg>
