<svg width="20" height="20" viewBox="0 0 20 20" fill="none" xmlns="http://www.w3.org/2000/svg">
<path d="M13.332 14.1667L7.4987 14.1667" stroke="#05011C" stroke-width="1.5" stroke-linecap="round" stroke-linejoin="round"/>
<path d="M13.332 10.8334L10.832 10.8334" stroke="#05011C" stroke-width="1.5" stroke-linecap="round" stroke-linejoin="round"/>
<path d="M17.082 11.6667C17.082 14.8094 17.082 16.3808 16.0447 17.3571C15.0074 18.3334 13.3378 18.3334 9.9987 18.3334H9.35476C6.63709 18.3334 5.27825 18.3334 4.33459 17.6685C4.06421 17.478 3.82418 17.2521 3.62178 16.9976C2.91536 16.1095 2.91536 14.8306 2.91536 12.2728V10.1516C2.91536 7.68225 2.91536 6.44759 3.30614 5.4615C3.93438 3.87623 5.26298 2.62578 6.94733 2.0345C7.99505 1.66671 9.30687 1.66671 11.9305 1.66671C13.4297 1.66671 14.1794 1.66671 14.7781 1.87687C15.7405 2.21475 16.4997 2.92929 16.8587 3.83516C17.082 4.39864 17.082 5.10416 17.082 6.51519V11.6667Z" stroke="#05011C" stroke-width="1.5" stroke-linejoin="round"/>
<path d="M2.91667 10C2.91667 8.46588 4.16032 7.22222 5.69444 7.22222C6.24926 7.22222 6.90336 7.31944 7.4428 7.1749C7.9221 7.04647 8.29647 6.6721 8.4249 6.1928C8.56944 5.65336 8.47222 4.99926 8.47222 4.44444C8.47222 2.91032 9.71588 1.66667 11.25 1.66667" stroke="#05011C" stroke-width="1.5" stroke-linecap="round" stroke-linejoin="round"/>
</svg>
