<svg width="20" height="20" viewBox="0 0 20 20" fill="none" xmlns="http://www.w3.org/2000/svg">
<path d="M5.83398 17.5L5.83398 15" stroke="#05011C" stroke-width="1.5" stroke-linecap="round" stroke-linejoin="round"/>
<path d="M14.168 17.5L14.168 12.5" stroke="#05011C" stroke-width="1.5" stroke-linecap="round" stroke-linejoin="round"/>
<path d="M14.168 5L14.168 2.5" stroke="#05011C" stroke-width="1.5" stroke-linecap="round" stroke-linejoin="round"/>
<path d="M5.83398 7.5L5.83398 2.5" stroke="#05011C" stroke-width="1.5" stroke-linecap="round" stroke-linejoin="round"/>
<path d="M5.83398 15C5.05742 15 4.66913 15 4.36285 14.8731C3.95447 14.704 3.63001 14.3795 3.46085 13.9711C3.33398 13.6649 3.33398 13.2766 3.33398 12.5C3.33398 11.7234 3.33398 11.3351 3.46085 11.0289C3.63001 10.6205 3.95447 10.296 4.36285 10.1269C4.66913 10 5.05742 10 5.83398 10C6.61055 10 6.99884 10 7.30512 10.1269C7.7135 10.296 8.03796 10.6205 8.20712 11.0289C8.33398 11.3351 8.33398 11.7234 8.33398 12.5C8.33398 13.2766 8.33398 13.6649 8.20712 13.9711C8.03796 14.3795 7.7135 14.704 7.30512 14.8731C6.99884 15 6.61055 15 5.83398 15Z" stroke="#05011C" stroke-width="1.5"/>
<path d="M14.168 10C13.3914 10 13.0031 10 12.6968 9.87313C12.2884 9.70398 11.964 9.37952 11.7948 8.97114C11.668 8.66485 11.668 8.27657 11.668 7.5C11.668 6.72343 11.668 6.33515 11.7948 6.02886C11.964 5.62048 12.2884 5.29602 12.6968 5.12687C13.0031 5 13.3914 5 14.168 5C14.9445 5 15.3328 5 15.6391 5.12687C16.0475 5.29602 16.3719 5.62048 16.5411 6.02886C16.668 6.33515 16.668 6.72343 16.668 7.5C16.668 8.27657 16.668 8.66485 16.5411 8.97114C16.3719 9.37952 16.0475 9.70398 15.6391 9.87313C15.3328 10 14.9445 10 14.168 10Z" stroke="#05011C" stroke-width="1.5"/>
</svg>
