<svg width="20" height="20" viewBox="0 0 20 20" fill="none" xmlns="http://www.w3.org/2000/svg">
<path d="M9.25 11.5C9.25 11.9142 9.58579 12.25 10 12.25C10.4142 12.25 10.75 11.9142 10.75 11.5L9.25 11.5ZM14.5 13.75C14.0858 13.75 13.75 14.0858 13.75 14.5C13.75 14.9142 14.0858 15.25 14.5 15.25V13.75ZM16 17.5C16 17.9142 16.3358 18.25 16.75 18.25C17.1642 18.25 17.5 17.9142 17.5 17.5H16ZM5.5 15.25C5.91421 15.25 6.25 14.9142 6.25 14.5C6.25 14.0858 5.91421 13.75 5.5 13.75V15.25ZM2.5 17.5C2.5 17.9142 2.83579 18.25 3.25 18.25C3.66421 18.25 4 17.9142 4 17.5H2.5ZM2.5 10.75C2.08579 10.75 1.75 11.0858 1.75 11.5C1.75 11.9142 2.08579 12.25 2.5 12.25V10.75ZM4.75 12.25C5.16421 12.25 5.5 11.9142 5.5 11.5C5.5 11.0858 5.16421 10.75 4.75 10.75V12.25ZM15.25 10.75C14.8358 10.75 14.5 11.0858 14.5 11.5C14.5 11.9142 14.8358 12.25 15.25 12.25V10.75ZM17.5 12.25C17.9142 12.25 18.25 11.9142 18.25 11.5C18.25 11.0858 17.9142 10.75 17.5 10.75V12.25ZM15.25 7.75C14.8358 7.75 14.5 8.08579 14.5 8.5C14.5 8.91421 14.8358 9.25 15.25 9.25V7.75ZM18.25 5.5C18.25 5.08579 17.9142 4.75 17.5 4.75C17.0858 4.75 16.75 5.08579 16.75 5.5H18.25ZM4.75 9.25C5.16421 9.25 5.5 8.91421 5.5 8.5C5.5 8.08579 5.16421 7.75 4.75 7.75V9.25ZM3.25 5.5C3.25 5.08579 2.91421 4.75 2.5 4.75C2.08579 4.75 1.75 5.08579 1.75 5.5H3.25ZM7.21967 4.53033C7.51256 4.82322 7.98744 4.82322 8.28033 4.53033C8.57322 4.23744 8.57322 3.76256 8.28033 3.46967L7.21967 4.53033ZM6.78033 1.96967C6.48744 1.67678 6.01256 1.67678 5.71967 1.96967C5.42678 2.26256 5.42678 2.73744 5.71967 3.03033L6.78033 1.96967ZM11.7197 3.46967C11.4268 3.76256 11.4268 4.23744 11.7197 4.53033C12.0126 4.82322 12.4874 4.82322 12.7803 4.53033L11.7197 3.46967ZM14.2803 3.03033C14.5732 2.73744 14.5732 2.26256 14.2803 1.96967C13.9874 1.67678 13.5126 1.67678 13.2197 1.96967L14.2803 3.03033ZM9.25 8.5L9.25 11.5L10.75 11.5L10.75 8.5L9.25 8.5ZM14.5 10.75C14.5 14.25 12.3208 16.75 10 16.75V18.25C13.4782 18.25 16 14.7058 16 10.75H14.5ZM10 16.75C7.67921 16.75 5.5 14.25 5.5 10.75H4C4 14.7058 6.5218 18.25 10 18.25V16.75ZM5.5 10.75C5.5 7.24996 7.67921 4.75 10 4.75V3.25C6.5218 3.25 4 6.7942 4 10.75H5.5ZM10 4.75C12.3208 4.75 14.5 7.24996 14.5 10.75H16C16 6.7942 13.4782 3.25 10 3.25V4.75ZM14.5 15.25C14.8323 15.25 15.1904 15.4279 15.491 15.8287C15.7918 16.2297 16 16.8182 16 17.5H17.5C17.5 16.525 17.2045 15.6134 16.691 14.9287C16.1773 14.2437 15.4103 13.75 14.5 13.75V15.25ZM5.5 13.75C4.58968 13.75 3.82273 14.2437 3.30901 14.9287C2.79546 15.6134 2.5 16.525 2.5 17.5H4C4 16.8182 4.20822 16.2297 4.50901 15.8287C4.80963 15.4279 5.16768 15.25 5.5 15.25V13.75ZM2.5 12.25H4.75V10.75H2.5V12.25ZM15.25 12.25H17.5V10.75H15.25V12.25ZM15.25 9.25C16.1603 9.25 16.9273 8.75628 17.441 8.07132C17.9545 7.38659 18.25 6.47501 18.25 5.5H16.75C16.75 6.18184 16.5418 6.77026 16.241 7.17132C15.9404 7.57214 15.5823 7.75 15.25 7.75V9.25ZM4.75 7.75C4.41768 7.75 4.05963 7.57214 3.75901 7.17132C3.45822 6.77027 3.25 6.18184 3.25 5.5H1.75C1.75 6.47501 2.04546 7.38659 2.55901 8.07132C3.07273 8.75628 3.83968 9.25 4.75 9.25V7.75ZM14.06 6.39266C12.862 7.26061 11.4742 7.75 10 7.75V9.25C11.8179 9.25 13.5094 8.6439 14.94 7.60734L14.06 6.39266ZM10 7.75C8.5258 7.75 7.13797 7.26061 5.94004 6.39266L5.05996 7.60734C6.49061 8.6439 8.18215 9.25 10 9.25V7.75ZM8.28033 3.46967L6.78033 1.96967L5.71967 3.03033L7.21967 4.53033L8.28033 3.46967ZM12.7803 4.53033L14.2803 3.03033L13.2197 1.96967L11.7197 3.46967L12.7803 4.53033Z" fill="#05011C"/>
</svg>
