<svg width="28" height="28" viewBox="0 0 28 28" fill="none" xmlns="http://www.w3.org/2000/svg">
<path d="M19.8327 14C19.8327 17.2216 17.221 19.8333 13.9993 19.8333C10.7777 19.8333 8.16602 17.2216 8.16602 14C8.16602 10.7783 10.7777 8.16663 13.9993 8.16663" stroke="#05011C" stroke-width="2" stroke-linecap="round"/>
<path d="M16.333 2.56669C15.5791 2.41365 14.7988 2.33331 13.9997 2.33331C7.55635 2.33331 2.33301 7.55666 2.33301 14C2.33301 20.4433 7.55635 25.6666 13.9997 25.6666C20.443 25.6666 25.6663 20.4433 25.6663 14C25.6663 13.2009 25.586 12.4206 25.433 11.6666" stroke="#05011C" stroke-width="2" stroke-linecap="round"/>
<path d="M19.3703 8.62966L14 14M19.3703 8.62966L18.9912 7.17649C18.7039 6.07564 19.0971 4.80565 20.0068 3.896L21.3477 2.55505C21.7048 2.19799 22.2575 2.28629 22.3703 2.7184L22.9727 5.02728L25.2816 5.6297C25.7137 5.74245 25.802 6.29521 25.4449 6.65227L24.104 7.99322C23.1943 8.90287 21.9243 9.29604 20.8235 9.00882L19.3703 8.62966Z" stroke="#05011C" stroke-width="2" stroke-linecap="round" stroke-linejoin="round"/>
</svg>
