<svg width="33" height="32" viewBox="0 0 33 32" fill="none" xmlns="http://www.w3.org/2000/svg">
<g clip-path="url(#clip0_47903_27965)" filter="url(#filter0_d_47903_27965)">
<path d="M28.2682 12.2763C28.2682 11.4605 28.2021 10.6404 28.061 9.83789H16.7422V14.4589H23.2239C22.955 15.9492 22.0907 17.2676 20.8252 18.1054V21.1037H24.6922C26.963 19.0137 28.2682 15.9272 28.2682 12.2763Z" fill="#4285F4"/>
<path d="M16.7391 24.0013C19.9756 24.0013 22.705 22.9387 24.6936 21.1044L20.8266 18.106C19.7507 18.838 18.3618 19.2525 16.7435 19.2525C13.6129 19.2525 10.9585 17.1404 10.0061 14.3008H6.01562V17.3917C8.05274 21.4439 12.2019 24.0013 16.7391 24.0013V24.0013Z" fill="#34A853"/>
<path d="M10.0047 14.3007C9.50206 12.8103 9.50206 11.1965 10.0047 9.70618V6.61523H6.01869C4.31669 10.006 4.31669 14.0009 6.01869 17.3916L10.0047 14.3007V14.3007Z" fill="#FBBC04"/>
<path d="M16.7391 4.74966C18.4499 4.7232 20.1034 5.36697 21.3425 6.54867L24.7685 3.12262C22.5991 1.0855 19.7198 -0.034466 16.7391 0.000808666C12.2019 0.000808666 8.05274 2.55822 6.01562 6.61481L10.0017 9.70575C10.9497 6.86173 13.6085 4.74966 16.7391 4.74966V4.74966Z" fill="#EA4335"/>
</g>
<defs>
<filter id="filter0_d_47903_27965" x="0.5" y="0" width="32" height="32" filterUnits="userSpaceOnUse" color-interpolation-filters="sRGB">
<feFlood flood-opacity="0" result="BackgroundImageFix"/>
<feColorMatrix in="SourceAlpha" type="matrix" values="0 0 0 0 0 0 0 0 0 0 0 0 0 0 0 0 0 0 127 0" result="hardAlpha"/>
<feOffset dy="4"/>
<feGaussianBlur stdDeviation="2"/>
<feComposite in2="hardAlpha" operator="out"/>
<feColorMatrix type="matrix" values="0 0 0 0 0 0 0 0 0 0 0 0 0 0 0 0 0 0 0.25 0"/>
<feBlend mode="normal" in2="BackgroundImageFix" result="effect1_dropShadow_47903_27965"/>
<feBlend mode="normal" in="SourceGraphic" in2="effect1_dropShadow_47903_27965" result="shape"/>
</filter>
<clipPath id="clip0_47903_27965">
<rect width="24" height="24" fill="white" transform="translate(4.5)"/>
</clipPath>
</defs>
</svg>
