<svg width="12" height="12" viewBox="0 0 12 12" fill="none" xmlns="http://www.w3.org/2000/svg">
<path d="M4.53083 2.41317L1.61956 4.96067C1.3699 5.17913 1.53729 5.56714 1.88119 5.56714C2.0913 5.56714 2.26162 5.72446 2.26162 5.91853V7.54029C2.26162 8.93551 2.26162 9.63312 2.73088 10.0666C3.20014 10.5 3.95541 10.5 5.46595 10.5H6.53405C8.04459 10.5 8.79986 10.5 9.26912 10.0666C9.73838 9.63312 9.73838 8.93551 9.73838 7.54029V5.91853C9.73838 5.72446 9.90871 5.56714 10.1188 5.56714C10.4627 5.56714 10.6301 5.17913 10.3804 4.96067L7.46917 2.41317C6.77347 1.80439 6.42561 1.5 6 1.5C5.57439 1.5 5.22653 1.80439 4.53083 2.41317Z" stroke="#666E80" stroke-linecap="round" stroke-linejoin="round"/>
<path d="M6 8H6.00449" stroke="#666E80" stroke-width="1.3" stroke-linecap="round" stroke-linejoin="round"/>
</svg>
