<svg width="57" height="56" viewBox="0 0 57 56" fill="none" xmlns="http://www.w3.org/2000/svg">
<path d="M1.17578 12C1.17578 5.64873 6.32451 0.5 12.6758 0.5H44.6758C51.0271 0.5 56.1758 5.64873 56.1758 12V44C56.1758 50.3513 51.0271 55.5 44.6758 55.5H12.6758C6.32451 55.5 1.17578 50.3513 1.17578 44V12Z" fill="#FFF7EC"/>
<path d="M1.17578 12C1.17578 5.64873 6.32451 0.5 12.6758 0.5H44.6758C51.0271 0.5 56.1758 5.64873 56.1758 12V44C56.1758 50.3513 51.0271 55.5 44.6758 55.5H12.6758C6.32451 55.5 1.17578 50.3513 1.17578 44V12Z" stroke="#FEE8CA"/>
<path d="M34.5091 24.4999C34.5091 23.9028 34.2813 23.3057 33.8257 22.8501C33.3701 22.3945 32.7729 22.1667 32.1758 22.1667M32.1758 31.5C36.0418 31.5 39.1758 28.366 39.1758 24.5C39.1758 20.634 36.0418 17.5 32.1758 17.5C28.3098 17.5 25.1758 20.634 25.1758 24.5C25.1758 24.8193 25.1972 25.1336 25.2386 25.4415C25.3067 25.948 25.3407 26.2013 25.3178 26.3615C25.2939 26.5284 25.2635 26.6184 25.1813 26.7655C25.1023 26.9068 24.9631 27.046 24.6848 27.3243L18.7225 33.2866C18.5207 33.4884 18.4198 33.5893 18.3477 33.707C18.2837 33.8114 18.2366 33.9252 18.208 34.0442C18.1758 34.1785 18.1758 34.3212 18.1758 34.6065V36.6333C18.1758 37.2867 18.1758 37.6134 18.3029 37.863C18.4148 38.0825 18.5933 38.261 18.8128 38.3728C19.0624 38.5 19.3891 38.5 20.0424 38.5H22.8424V36.1667H25.1758V33.8333H27.5091L29.3514 31.991C29.6298 31.7127 29.7689 31.5735 29.9102 31.4945C30.0574 31.4123 30.1474 31.3819 30.3143 31.358C30.4745 31.3351 30.7277 31.3691 31.2342 31.4372C31.5422 31.4786 31.8565 31.5 32.1758 31.5Z" stroke="#05011C" stroke-width="1.8" stroke-linecap="round" stroke-linejoin="round"/>
</svg>
