<svg width="57" height="56" viewBox="0 0 57 56" fill="none" xmlns="http://www.w3.org/2000/svg">
<path d="M1.17578 12C1.17578 5.64873 6.32451 0.5 12.6758 0.5H44.6758C51.0271 0.5 56.1758 5.64873 56.1758 12V44C56.1758 50.3513 51.0271 55.5 44.6758 55.5H12.6758C6.32451 55.5 1.17578 50.3513 1.17578 44V12Z" fill="#FFF7EC"/>
<path d="M1.17578 12C1.17578 5.64873 6.32451 0.5 12.6758 0.5H44.6758C51.0271 0.5 56.1758 5.64873 56.1758 12V44C56.1758 50.3513 51.0271 55.5 44.6758 55.5H12.6758C6.32451 55.5 1.17578 50.3513 1.17578 44V12Z" stroke="#FEE8CA"/>
<path d="M34.5104 25.6667V23.3333C34.5104 20.1117 31.8987 17.5 28.6771 17.5C25.4554 17.5 22.8438 20.1117 22.8438 23.3333V25.6667M28.6771 30.9167V33.25M24.9438 38.5H32.4104C34.3706 38.5 35.3507 38.5 36.0994 38.1185C36.758 37.783 37.2934 37.2475 37.6289 36.589C38.0104 35.8403 38.0104 34.8602 38.0104 32.9V31.2667C38.0104 29.3065 38.0104 28.3264 37.6289 27.5777C37.2934 26.9191 36.758 26.3837 36.0994 26.0481C35.3507 25.6667 34.3706 25.6667 32.4104 25.6667H24.9438C22.9836 25.6667 22.0035 25.6667 21.2548 26.0481C20.5962 26.3837 20.0608 26.9191 19.7252 27.5777C19.3438 28.3264 19.3438 29.3065 19.3438 31.2667V32.9C19.3438 34.8602 19.3438 35.8403 19.7252 36.589C20.0608 37.2475 20.5962 37.783 21.2548 38.1185C22.0035 38.5 22.9836 38.5 24.9438 38.5Z" stroke="#05011C" stroke-width="1.8" stroke-linecap="round" stroke-linejoin="round"/>
</svg>
