<svg width="57" height="56" viewBox="0 0 57 56" fill="none" xmlns="http://www.w3.org/2000/svg">
<path d="M1.17578 12C1.17578 5.64873 6.32451 0.5 12.6758 0.5H44.6758C51.0271 0.5 56.1758 5.64873 56.1758 12V44C56.1758 50.3513 51.0271 55.5 44.6758 55.5H12.6758C6.32451 55.5 1.17578 50.3513 1.17578 44V12Z" fill="#FFF7EC"/>
<path d="M1.17578 12C1.17578 5.64873 6.32451 0.5 12.6758 0.5H44.6758C51.0271 0.5 56.1758 5.64873 56.1758 12V44C56.1758 50.3513 51.0271 55.5 44.6758 55.5H12.6758C6.32451 55.5 1.17578 50.3513 1.17578 44V12Z" stroke="#FEE8CA"/>
<path d="M17.0264 30.9755C17.1033 34.5143 17.1418 36.2837 18.4616 37.5941C19.7814 38.9045 21.6183 38.9499 25.292 39.0407C27.5537 39.0967 29.7953 39.0967 32.057 39.0407C35.7307 38.9499 37.5675 38.9045 38.8874 37.5941C40.2072 36.2837 40.2456 34.5143 40.3226 30.9755C40.3603 29.2417 40.3406 27.525 40.2635 25.7735C40.2156 24.6856 40.1917 24.1417 39.9158 23.6592C39.6399 23.1767 39.1643 22.8653 38.2132 22.2424L33.8255 19.3694C31.3277 17.7338 30.0789 16.916 28.6745 16.916C27.2701 16.916 26.0212 17.7338 23.5234 19.3694L19.1358 22.2424C18.1846 22.8653 17.709 23.1767 17.4332 23.6592C17.1573 24.1417 17.1333 24.6856 17.0855 25.7735C17.0084 27.525 16.9887 29.2417 17.0264 30.9755Z" stroke="#05011C" stroke-width="1.8" stroke-linejoin="round"/>
<path d="M17.0078 25.082L21.9841 28.6866C22.5326 29.0839 23.0347 29.4476 23.4991 29.7775C24.7546 30.6694 25.6605 30.9154 27.2001 30.9154H30.1489C31.6884 30.9154 32.5944 30.6694 33.8498 29.7775C34.3143 29.4476 34.8163 29.0839 35.3649 28.6866L40.3411 25.082" stroke="#05011C" stroke-width="1.8" stroke-linejoin="round"/>
</svg>
