<svg width="57" height="56" viewBox="0 0 57 56" fill="none" xmlns="http://www.w3.org/2000/svg">
<path d="M1.17578 12C1.17578 5.64873 6.32451 0.5 12.6758 0.5H44.6758C51.0271 0.5 56.1758 5.64873 56.1758 12V44C56.1758 50.3513 51.0271 55.5 44.6758 55.5H12.6758C6.32451 55.5 1.17578 50.3513 1.17578 44V12Z" fill="#FFF7EC"/>
<path d="M1.17578 12C1.17578 5.64873 6.32451 0.5 12.6758 0.5H44.6758C51.0271 0.5 56.1758 5.64873 56.1758 12V44C56.1758 50.3513 51.0271 55.5 44.6758 55.5H12.6758C6.32451 55.5 1.17578 50.3513 1.17578 44V12Z" stroke="#FEE8CA"/>
<path d="M23.4245 28.0007L26.9245 31.5007L33.9245 24.5007M40.3411 28.0007C40.3411 34.444 35.1178 39.6673 28.6745 39.6673C22.2312 39.6673 17.0078 34.444 17.0078 28.0007C17.0078 21.5573 22.2312 16.334 28.6745 16.334C35.1178 16.334 40.3411 21.5573 40.3411 28.0007Z" stroke="#05011C" stroke-width="2" stroke-linecap="round" stroke-linejoin="round"/>
</svg>
