<svg width="16" height="20" viewBox="0 0 16 20" fill="none" xmlns="http://www.w3.org/2000/svg">
<path d="M4.25065 2.91663C2.95415 2.95552 2.18116 3.09982 1.6463 3.63519C0.914062 4.3681 0.914062 5.54771 0.914063 7.90693L0.914063 13.3286C0.914063 15.6879 0.914063 16.8675 1.6463 17.6004C2.37853 18.3333 3.55704 18.3333 5.91406 18.3333L10.0807 18.3333C12.4378 18.3333 13.6163 18.3333 14.3485 17.6004C15.0807 16.8675 15.0807 15.6879 15.0807 13.3286V7.90693C15.0807 5.54771 15.0807 4.3681 14.3485 3.63519C13.8136 3.09982 13.0406 2.95552 11.7441 2.91663" stroke="#05011C" stroke-width="1.5"/>
<path d="M4.24805 3.12496C4.24805 2.31954 4.90097 1.66663 5.70638 1.66663L10.2897 1.66663C11.0951 1.66663 11.748 2.31954 11.748 3.12496C11.748 3.93037 11.0951 4.58329 10.2897 4.58329L5.70638 4.58329C4.90096 4.58329 4.24805 3.93037 4.24805 3.12496Z" stroke="#05011C" stroke-width="1.5" stroke-linejoin="round"/>
<path d="M9.25 9.16663H12.1667" stroke="#05011C" stroke-width="1.5" stroke-linecap="round"/>
<path d="M3.83398 9.99992C3.83398 9.99992 4.25065 9.99992 4.66732 10.8333C4.66732 10.8333 5.99085 8.74992 7.16732 8.33325" stroke="#05011C" stroke-width="1.5" stroke-linecap="round" stroke-linejoin="round"/>
<path d="M9.25 14.1666H12.1667" stroke="#05011C" stroke-width="1.5" stroke-linecap="round"/>
<path d="M4.66797 14.1666H5.5013" stroke="#05011C" stroke-width="2" stroke-linecap="round" stroke-linejoin="round"/>
</svg>
