<svg width="18" height="20" viewBox="0 0 18 20" fill="none" xmlns="http://www.w3.org/2000/svg">
<path d="M16.7125 5.944L16.3012 5.23017C15.9901 4.69031 15.8345 4.42038 15.5699 4.31274C15.3053 4.2051 15.0059 4.29004 14.4073 4.45991L13.3905 4.74632C13.0083 4.83445 12.6073 4.78446 12.2584 4.60517L11.9777 4.44319C11.6784 4.25153 11.4483 3.96895 11.3208 3.63679L11.0426 2.80564C10.8596 2.25562 10.7681 1.98061 10.5503 1.82331C10.3325 1.66602 10.0431 1.66602 9.46451 1.66602L8.53553 1.66602C7.9569 1.66602 7.66758 1.66602 7.44977 1.82331C7.23196 1.98061 7.14047 2.25562 6.95749 2.80564L6.67919 3.63679C6.55179 3.96895 6.32163 4.25153 6.02239 4.44319L5.74166 4.60517C5.3927 4.78446 4.99174 4.83445 4.60957 4.74632L3.5927 4.45991C2.99409 4.29004 2.69479 4.2051 2.43014 4.31274C2.1655 4.42038 2.00996 4.69031 1.69888 5.23017L1.28755 5.944C0.995964 6.45004 0.850169 6.70306 0.878465 6.97241C0.906762 7.24176 1.10194 7.45882 1.4923 7.89294L2.3515 8.85353C2.5615 9.11938 2.71059 9.58268 2.71059 9.99921C2.71059 10.416 2.56155 10.8792 2.35152 11.1451L1.4923 12.1057C1.10194 12.5398 0.906763 12.7569 0.878466 13.0262C0.850169 13.2956 0.995968 13.5486 1.28756 14.0546L1.69887 14.7684C2.00994 15.3083 2.16549 15.5782 2.43014 15.6859C2.69479 15.7935 2.9941 15.7086 3.59272 15.5387L4.60953 15.2523C4.99177 15.1641 5.39281 15.2141 5.74181 15.3935L6.0225 15.5555C6.32167 15.7472 6.55179 16.0297 6.67917 16.3618L6.95749 17.1931C7.14047 17.7431 7.23196 18.0181 7.44977 18.1754C7.66758 18.3327 7.9569 18.3327 8.53553 18.3327H9.46451C10.0431 18.3327 10.3325 18.3327 10.5503 18.1754C10.7681 18.0181 10.8596 17.7431 11.0426 17.1931L11.3209 16.3618C11.4483 16.0297 11.6784 15.7472 11.9775 15.5555L12.2582 15.3935C12.6072 15.2141 13.0083 15.1641 13.3905 15.2523L14.4073 15.5387C15.0059 15.7086 15.3053 15.7935 15.5699 15.6859C15.8345 15.5782 15.9901 15.3083 16.3012 14.7684L16.7125 14.0546L16.7125 14.0546C17.0041 13.5486 17.1499 13.2956 17.1216 13.0262C17.0933 12.7569 16.8981 12.5398 16.5077 12.1057L15.6485 11.1451C15.4385 10.8792 15.2895 10.416 15.2895 9.99921C15.2895 9.58268 15.4385 9.11938 15.6485 8.85353L16.5077 7.89294C16.8981 7.45882 17.0933 7.24176 17.1216 6.97241C17.1499 6.70306 17.0041 6.45004 16.7125 5.944Z" stroke="white" stroke-width="1.5" stroke-linecap="round"/>
<path d="M10.7157 9.58268L11.1325 9.16595C11.5001 8.79832 11.6839 8.61451 11.9252 8.6908C12.1665 8.76708 12.2046 8.98526 12.2808 9.42163C12.3136 9.60928 12.3307 9.80232 12.3307 9.99935C12.3307 11.8403 10.8383 13.3327 8.9974 13.3327C8.55535 13.3327 8.13341 13.2466 7.7474 13.0904M7.33073 10.4453L6.87727 10.8987C6.51539 11.2606 6.33445 11.4416 6.09553 11.3692C5.85661 11.2968 5.81394 11.083 5.7286 10.6554C5.68627 10.4433 5.66406 10.2239 5.66406 9.99935C5.66406 8.1584 7.15645 6.66602 8.9974 6.66602C9.43944 6.66602 9.86138 6.75206 10.2474 6.90831" stroke="white" stroke-width="1.5" stroke-linecap="round" stroke-linejoin="round"/>
</svg>
