<svg width="14" height="13" viewBox="0 0 14 13" fill="none" xmlns="http://www.w3.org/2000/svg">
<path d="M1.16602 7.33317L1.16602 4.1665L12.8327 4.1665V7.33317C12.8327 9.69019 12.8327 10.8687 12.0733 11.6009C11.314 12.3332 10.0918 12.3332 7.6475 12.3332H6.3512C3.90688 12.3332 2.68472 12.3332 1.92537 11.6009C1.16602 10.8687 1.16602 9.69019 1.16602 7.33317Z" stroke="#F8910B" stroke-width="1.2" stroke-linecap="round" stroke-linejoin="round"/>
<path d="M1.16602 4.1665L1.72691 2.82035C2.16192 1.77634 2.37942 1.25433 2.82029 0.960416C3.26116 0.666504 3.82667 0.666504 4.95768 0.666504L9.04102 0.666504C10.172 0.666504 10.7375 0.666504 11.1784 0.960416C11.6193 1.25433 11.8368 1.77634 12.2718 2.82035L12.8327 4.1665" stroke="#F8910B" stroke-width="1.2" stroke-linecap="round"/>
<path d="M7 4.1665L7 0.666504" stroke="#F8910B" stroke-width="1.2" stroke-linecap="round"/>
<path d="M5.83203 6.5L8.16536 6.5" stroke="#F8910B" stroke-width="1.2" stroke-linecap="round"/>
</svg>
