<svg width="20" height="20" viewBox="0 0 20 20" fill="none" xmlns="http://www.w3.org/2000/svg">
<path d="M9.9987 12.5L7.4987 9.99998M9.9987 12.5C11.1627 12.0573 12.2794 11.4989 13.332 10.8333M9.9987 12.5V16.6667C9.9987 16.6667 12.5237 16.2083 13.332 15C14.232 13.65 13.332 10.8333 13.332 10.8333M7.4987 9.99998C7.94215 8.84951 8.50053 7.7467 9.16536 6.70832C10.1363 5.15581 11.4884 3.87752 13.0929 2.99506C14.6973 2.11259 16.5009 1.65529 18.332 1.66665C18.332 3.93332 17.682 7.91665 13.332 10.8333M7.4987 9.99998H3.33203C3.33203 9.99998 3.79036 7.47498 4.9987 6.66665C6.3487 5.76665 9.16536 6.66665 9.16536 6.66665M3.7487 13.75C2.4987 14.8 2.08203 17.9167 2.08203 17.9167C2.08203 17.9167 5.1987 17.5 6.2487 16.25C6.84036 15.55 6.83203 14.475 6.1737 13.825C5.84979 13.5158 5.42311 13.3372 4.97555 13.3233C4.528 13.3095 4.09109 13.4614 3.7487 13.75Z" stroke="white" stroke-width="1.5" stroke-linecap="round" stroke-linejoin="round"/>
</svg>
