<svg width="14" height="11" viewBox="0 0 14 11" fill="none" xmlns="http://www.w3.org/2000/svg">
<path d="M12.1182 9C12.5553 9 12.9029 8.72494 13.2151 8.34034C13.8541 7.55301 12.8049 6.92382 12.4048 6.61568C11.998 6.30244 11.5438 6.12499 11.0833 6.08333M10.5 4.91667C11.3054 4.91667 11.9583 4.26375 11.9583 3.45833C11.9583 2.65292 11.3054 2 10.5 2" stroke="#F8910B" stroke-width="1.2" stroke-linecap="round"/>
<path d="M1.88051 9C1.44341 9 1.09575 8.72494 0.7836 8.34034C0.144583 7.55301 1.19376 6.92382 1.59391 6.61568C2.00068 6.30244 2.45487 6.12499 2.91536 6.08333M3.20703 4.91667C2.40162 4.91667 1.7487 4.26375 1.7487 3.45833C1.7487 2.65292 2.40162 2 3.20703 2" stroke="#F8910B" stroke-width="1.2" stroke-linecap="round"/>
<path d="M4.71425 7.31616C4.11821 7.68472 2.55544 8.43727 3.50727 9.37897C3.97224 9.83898 4.49009 10.168 5.14115 10.168H8.85625C9.50731 10.168 10.0252 9.83898 10.4901 9.37897C11.442 8.43727 9.87918 7.68472 9.28314 7.31616C7.88545 6.4519 6.11195 6.4519 4.71425 7.31616Z" stroke="#F8910B" stroke-width="1.2" stroke-linecap="round" stroke-linejoin="round"/>
<path d="M9.04036 2.87565C9.04036 4.00323 8.12628 4.91732 6.9987 4.91732C5.87112 4.91732 4.95703 4.00323 4.95703 2.87565C4.95703 1.74807 5.87112 0.833984 6.9987 0.833984C8.12628 0.833984 9.04036 1.74807 9.04036 2.87565Z" stroke="#F8910B" stroke-width="1.2"/>
</svg>
