<svg width="18" height="20" viewBox="0 0 18 20" fill="none" xmlns="http://www.w3.org/2000/svg">
<path d="M8.16797 10.8333H12.3346M5.66797 10.8333H5.67545M9.83464 14.1666H5.66797M12.3346 14.1666H12.3272" stroke="#05011C" stroke-width="1.5" stroke-linecap="round" stroke-linejoin="round"/>
<path d="M14 1.66663V3.33329M4 1.66663V3.33329" stroke="#05011C" stroke-width="1.5" stroke-linecap="round" stroke-linejoin="round"/>
<path d="M1.08398 10.2027C1.08398 6.57161 1.08398 4.75607 2.12742 3.62803C3.17085 2.5 4.85023 2.5 8.20898 2.5H9.79232C13.1511 2.5 14.8305 2.5 15.8739 3.62803C16.9173 4.75607 16.9173 6.57161 16.9173 10.2027V10.6306C16.9173 14.2617 16.9173 16.0773 15.8739 17.2053C14.8305 18.3333 13.1511 18.3333 9.79232 18.3333H8.20898C4.85023 18.3333 3.17085 18.3333 2.12742 17.2053C1.08398 16.0773 1.08398 14.2617 1.08398 10.6306V10.2027Z" stroke="#05011C" stroke-width="1.5" stroke-linecap="round" stroke-linejoin="round"/>
<path d="M1.5 6.66663H16.5" stroke="#05011C" stroke-width="1.5" stroke-linecap="round" stroke-linejoin="round"/>
</svg>
