<svg width="12" height="12" viewBox="0 0 12 12" fill="none" xmlns="http://www.w3.org/2000/svg">
<path d="M8.73879 5.00003C8.74252 5.00001 8.74626 5 8.75 5C9.99264 5 11 6.00736 11 7.25C11 8.49264 9.99264 9.5 8.75 9.5H3.5C2.11929 9.5 1 8.38071 1 7C1 5.70017 1.99199 4.63204 3.26021 4.51135M8.73879 5.00003C8.74621 4.91768 8.75 4.83428 8.75 4.75C8.75 3.23122 7.51878 2 6 2C4.56162 2 3.38116 3.10431 3.26021 4.51135M8.73879 5.00003C8.68767 5.56725 8.46431 6.08481 8.12142 6.5M3.26021 4.51135C3.33913 4.50384 3.41912 4.5 3.5 4.5C4.06291 4.5 4.58237 4.68604 5.00024 5" stroke="#666E80" stroke-linecap="round" stroke-linejoin="round"/>
</svg>
