<svg width="20" height="20" viewBox="0 0 20 20" fill="none" xmlns="http://www.w3.org/2000/svg">
<path d="M14.9993 1.66663V8.33329M18.3327 4.99996L11.666 4.99996" stroke="#05011C" stroke-width="1.5" stroke-linecap="round" stroke-linejoin="round"/>
<path d="M1.66602 4.99996C1.66602 3.83318 1.66602 3.2498 1.89309 2.80415C2.09282 2.41214 2.41153 2.09343 2.80354 1.8937C3.24918 1.66663 3.83257 1.66663 4.99935 1.66663C6.16612 1.66663 6.74951 1.66663 7.19516 1.8937C7.58717 2.09343 7.90588 2.41214 8.10561 2.80415C8.33268 3.2498 8.33268 3.83318 8.33268 4.99996C8.33268 6.16674 8.33268 6.75012 8.10561 7.19577C7.90588 7.58778 7.58717 7.90649 7.19516 8.10622C6.74951 8.33329 6.16612 8.33329 4.99935 8.33329C3.83257 8.33329 3.24918 8.33329 2.80354 8.10622C2.41153 7.90649 2.09282 7.58778 1.89309 7.19577C1.66602 6.75012 1.66602 6.16674 1.66602 4.99996Z" stroke="#05011C" stroke-width="1.5"/>
<path d="M1.66602 15C1.66602 13.8332 1.66602 13.2498 1.89309 12.8041C2.09282 12.4121 2.41153 12.0934 2.80354 11.8937C3.24918 11.6666 3.83257 11.6666 4.99935 11.6666C6.16612 11.6666 6.74951 11.6666 7.19516 11.8937C7.58717 12.0934 7.90588 12.4121 8.10561 12.8041C8.33268 13.2498 8.33268 13.8332 8.33268 15C8.33268 16.1667 8.33268 16.7501 8.10561 17.1958C7.90588 17.5878 7.58717 17.9065 7.19516 18.1062C6.74951 18.3333 6.16612 18.3333 4.99935 18.3333C3.83257 18.3333 3.24918 18.3333 2.80354 18.1062C2.41153 17.9065 2.09282 17.5878 1.89309 17.1958C1.66602 16.7501 1.66602 16.1667 1.66602 15Z" stroke="#05011C" stroke-width="1.5"/>
<path d="M11.666 15C11.666 13.8332 11.666 13.2498 11.8931 12.8041C12.0928 12.4121 12.4115 12.0934 12.8035 11.8937C13.2492 11.6666 13.8326 11.6666 14.9993 11.6666C16.1661 11.6666 16.7495 11.6666 17.1952 11.8937C17.5872 12.0934 17.9059 12.4121 18.1056 12.8041C18.3327 13.2498 18.3327 13.8332 18.3327 15C18.3327 16.1667 18.3327 16.7501 18.1056 17.1958C17.9059 17.5878 17.5872 17.9065 17.1952 18.1062C16.7495 18.3333 16.1661 18.3333 14.9993 18.3333C13.8326 18.3333 13.2492 18.3333 12.8035 18.1062C12.4115 17.9065 12.0928 17.5878 11.8931 17.1958C11.666 16.7501 11.666 16.1667 11.666 15Z" stroke="#05011C" stroke-width="1.5"/>
</svg>
