<svg width="20" height="20" viewBox="0 0 20 20" fill="none" xmlns="http://www.w3.org/2000/svg">
<path d="M12.9154 10C12.9154 11.6109 11.6095 12.9167 9.9987 12.9167C8.38787 12.9167 7.08203 11.6109 7.08203 10C7.08203 8.38921 8.38787 7.08337 9.9987 7.08337C11.6095 7.08337 12.9154 8.38921 12.9154 10Z" stroke="#05011C" stroke-width="1.5"/>
<path d="M17.3487 11.7949C17.878 11.6209 18.1427 11.5339 18.2377 11.4027C18.3327 11.2715 18.3327 11.0607 18.3327 10.6391V9.36107C18.3327 8.93943 18.3327 8.72861 18.2377 8.59739C18.1427 8.46617 17.878 8.3792 17.3487 8.20526C15.8711 7.71969 14.9465 6.17585 15.2476 4.66574C15.3587 4.10822 15.4143 3.82946 15.347 3.6824C15.2798 3.53533 15.0956 3.43073 14.7271 3.22152L13.5797 2.57009C13.2171 2.36417 13.0357 2.26121 12.8754 2.27849C12.7151 2.29578 12.511 2.47894 12.1027 2.84527C10.9184 3.90779 9.08163 3.90775 7.89733 2.84519C7.48904 2.47886 7.28489 2.2957 7.1246 2.27841C6.96431 2.26112 6.78297 2.36409 6.42028 2.57001L5.27293 3.22144C4.90448 3.43063 4.72026 3.53523 4.65302 3.68227C4.58578 3.82931 4.64131 4.1081 4.75237 4.66569C5.05318 6.17585 4.12789 7.71974 2.65 8.20528C2.12069 8.37918 1.85604 8.46613 1.76103 8.59735C1.66602 8.72858 1.66602 8.93941 1.66602 9.36107L1.66602 10.6391C1.66602 11.0607 1.66602 11.2716 1.76102 11.4028C1.85602 11.534 2.12068 11.621 2.64999 11.7949C4.12759 12.2805 5.05215 13.8243 4.75113 15.3344C4.63999 15.8919 4.58442 16.1707 4.65166 16.3178C4.7189 16.4648 4.90313 16.5694 5.27161 16.7786L6.41896 17.4301C6.78168 17.636 6.96304 17.739 7.12334 17.7217C7.28365 17.7044 7.48776 17.5212 7.89596 17.1548C9.08094 16.0913 10.9191 16.0913 12.1041 17.1548C12.5123 17.5211 12.7164 17.7043 12.8767 17.7216C13.037 17.7389 13.2183 17.6359 13.5811 17.43L14.7284 16.7786C15.0969 16.5693 15.2812 16.4647 15.3484 16.3176C15.4156 16.1705 15.36 15.8918 15.2488 15.3344C14.9476 13.8243 15.8714 12.2805 17.3487 11.7949Z" stroke="#05011C" stroke-width="1.5" stroke-linecap="round"/>
</svg>
