<svg width="20" height="20" viewBox="0 0 20 20" fill="none" xmlns="http://www.w3.org/2000/svg">
<g clip-path="url(#clip0_43980_6519)">
<path d="M1.66602 15C1.66602 13.7163 1.66602 13.0745 1.95496 12.603C2.11663 12.3391 2.33846 12.1173 2.60229 11.9556C3.0738 11.6667 3.71565 11.6667 4.99935 11.6667C6.28305 11.6667 6.9249 11.6667 7.3964 11.9556C7.66024 12.1173 7.88206 12.3391 8.04374 12.603C8.33268 13.0745 8.33268 13.7163 8.33268 15C8.33268 16.2837 8.33268 16.9256 8.04374 17.3971C7.88206 17.6609 7.66024 17.8827 7.3964 18.0444C6.9249 18.3334 6.28305 18.3334 4.99935 18.3334C3.71565 18.3334 3.0738 18.3334 2.60229 18.0444C2.33846 17.8827 2.11663 17.6609 1.95496 17.3971C1.66602 16.9256 1.66602 16.2837 1.66602 15Z" stroke="#05011C" stroke-width="1.5"/>
<path d="M11.666 15C11.666 13.7163 11.666 13.0745 11.955 12.603C12.1166 12.3391 12.3385 12.1173 12.6023 11.9556C13.0738 11.6667 13.7157 11.6667 14.9993 11.6667C16.283 11.6667 16.9249 11.6667 17.3964 11.9556C17.6602 12.1173 17.8821 12.3391 18.0437 12.603C18.3327 13.0745 18.3327 13.7163 18.3327 15C18.3327 16.2837 18.3327 16.9256 18.0437 17.3971C17.8821 17.6609 17.6602 17.8827 17.3964 18.0444C16.9249 18.3334 16.283 18.3334 14.9993 18.3334C13.7157 18.3334 13.0738 18.3334 12.6023 18.0444C12.3385 17.8827 12.1166 17.6609 11.955 17.3971C11.666 16.9256 11.666 16.2837 11.666 15Z" stroke="#05011C" stroke-width="1.5"/>
<path d="M1.66602 5.00002C1.66602 3.71632 1.66602 3.07447 1.95496 2.60296C2.11663 2.33913 2.33846 2.11731 2.60229 1.95563C3.0738 1.66669 3.71565 1.66669 4.99935 1.66669C6.28305 1.66669 6.9249 1.66669 7.3964 1.95563C7.66024 2.11731 7.88206 2.33913 8.04374 2.60296C8.33268 3.07447 8.33268 3.71632 8.33268 5.00002C8.33268 6.28372 8.33268 6.92557 8.04374 7.39708C7.88206 7.66091 7.66024 7.88273 7.3964 8.04441C6.9249 8.33335 6.28305 8.33335 4.99935 8.33335C3.71565 8.33335 3.0738 8.33335 2.60229 8.04441C2.33846 7.88273 2.11663 7.66091 1.95496 7.39708C1.66602 6.92557 1.66602 6.28372 1.66602 5.00002Z" stroke="#05011C" stroke-width="1.5"/>
<path d="M11.666 5.00002C11.666 3.71632 11.666 3.07447 11.955 2.60296C12.1166 2.33913 12.3385 2.11731 12.6023 1.95563C13.0738 1.66669 13.7157 1.66669 14.9993 1.66669C16.283 1.66669 16.9249 1.66669 17.3964 1.95563C17.6602 2.11731 17.8821 2.33913 18.0437 2.60296C18.3327 3.07447 18.3327 3.71632 18.3327 5.00002C18.3327 6.28372 18.3327 6.92557 18.0437 7.39708C17.8821 7.66091 17.6602 7.88273 17.3964 8.04441C16.9249 8.33335 16.283 8.33335 14.9993 8.33335C13.7157 8.33335 13.0738 8.33335 12.6023 8.04441C12.3385 7.88273 12.1166 7.66091 11.955 7.39708C11.666 6.92557 11.666 6.28372 11.666 5.00002Z" stroke="#05011C" stroke-width="1.5"/>
</g>
<defs>
<clipPath id="clip0_43980_6519">
<rect width="20" height="20" fill="white"/>
</clipPath>
</defs>
</svg>
