<svg width="21" height="20" viewBox="0 0 21 20" fill="none" xmlns="http://www.w3.org/2000/svg">
<path d="M10.5003 10.8333C10.9606 10.8333 11.3337 10.4602 11.3337 9.99998C11.3337 9.53974 10.9606 9.16665 10.5003 9.16665C10.0401 9.16665 9.66699 9.53974 9.66699 9.99998C9.66699 10.4602 10.0401 10.8333 10.5003 10.8333Z" stroke="#666E80" stroke-width="1.66667" stroke-linecap="round" stroke-linejoin="round"/>
<path d="M10.5003 4.99998C10.9606 4.99998 11.3337 4.62688 11.3337 4.16665C11.3337 3.70641 10.9606 3.33331 10.5003 3.33331C10.0401 3.33331 9.66699 3.70641 9.66699 4.16665C9.66699 4.62688 10.0401 4.99998 10.5003 4.99998Z" stroke="#666E80" stroke-width="1.66667" stroke-linecap="round" stroke-linejoin="round"/>
<path d="M10.5003 16.6666C10.9606 16.6666 11.3337 16.2935 11.3337 15.8333C11.3337 15.3731 10.9606 15 10.5003 15C10.0401 15 9.66699 15.3731 9.66699 15.8333C9.66699 16.2935 10.0401 16.6666 10.5003 16.6666Z" stroke="#666E80" stroke-width="1.66667" stroke-linecap="round" stroke-linejoin="round"/>
</svg>
