<svg width="20" height="20" viewBox="0 0 20 20" fill="none" xmlns="http://www.w3.org/2000/svg">
<path d="M17.5 3.33325C13.3333 3.33325 11.6493 6.70126 10 9.99992C8.35067 13.2986 6.66667 16.6666 2.5 16.6666" stroke="#05011C" stroke-width="1.5" stroke-linecap="round" stroke-linejoin="round"/>
<path d="M8.33398 16.6667H10.0007M12.5007 16.6667L14.1673 16.6667M14.1673 16.6667C14.1673 17.5871 14.9135 18.3333 15.834 18.3333C16.7545 18.3333 17.5007 17.5871 17.5007 16.6667C17.5007 15.7462 16.7545 15 15.834 15C14.9135 15 14.1673 15.7462 14.1673 16.6667Z" stroke="#05011C" stroke-width="1.5" stroke-linecap="round" stroke-linejoin="round"/>
<path d="M10 3.33329H11.6667M5.83333 3.33329L7.5 3.33329M5.83333 3.33329C5.83333 4.25377 5.08714 4.99996 4.16667 4.99996C3.24619 4.99996 2.5 4.25377 2.5 3.33329C2.5 2.41282 3.24619 1.66663 4.16667 1.66663C5.08714 1.66663 5.83333 2.41282 5.83333 3.33329Z" stroke="#05011C" stroke-width="1.5" stroke-linecap="round" stroke-linejoin="round"/>
</svg>
