<svg width="20" height="20" viewBox="0 0 20 20" fill="none" xmlns="http://www.w3.org/2000/svg">
<g clip-path="url(#clip0_43980_6568)">
<path d="M14.1654 10C14.1654 12.3012 12.2999 14.1667 9.9987 14.1667C7.69751 14.1667 5.83203 12.3012 5.83203 10C5.83203 7.69885 7.69751 5.83337 9.9987 5.83337" stroke="white" stroke-width="1.5" stroke-linecap="round"/>
<path d="M11.666 1.83338C11.1275 1.72407 10.5701 1.66669 9.99935 1.66669C5.39698 1.66669 1.66602 5.39765 1.66602 10C1.66602 14.6024 5.39698 18.3334 9.99935 18.3334C14.6017 18.3334 18.3327 14.6024 18.3327 10C18.3327 9.42924 18.2753 8.87187 18.166 8.33335" stroke="white" stroke-width="1.5" stroke-linecap="round"/>
<path d="M13.8359 6.16408L10 10M13.8359 6.16408L13.5651 5.1261C13.36 4.33978 13.6408 3.43264 14.2905 2.78289L15.2484 1.82507C15.5034 1.57003 15.8982 1.6331 15.9788 1.94175L16.4091 3.59095L18.0583 4.02125C18.3669 4.10178 18.43 4.49661 18.175 4.75165L17.2171 5.70947C16.5674 6.35923 15.6602 6.64007 14.8739 6.4349L13.8359 6.16408Z" stroke="white" stroke-width="1.5" stroke-linecap="round" stroke-linejoin="round"/>
</g>
<defs>
<clipPath id="clip0_43980_6568">
<rect width="20" height="20" fill="white"/>
</clipPath>
</defs>
</svg>
