<svg width="28" height="28" viewBox="0 0 28 28" fill="none" xmlns="http://www.w3.org/2000/svg">
<path d="M13 16.1C13 16.6523 13.4477 17.1 14 17.1C14.5523 17.1 15 16.6523 15 16.1L13 16.1ZM20.3 19.3C19.7477 19.3 19.3 19.7477 19.3 20.3C19.3 20.8523 19.7477 21.3 20.3 21.3V19.3ZM22.45 24.5C22.45 25.0523 22.8977 25.5 23.45 25.5C24.0023 25.5 24.45 25.0523 24.45 24.5H22.45ZM7.7 21.3C8.25228 21.3 8.7 20.8523 8.7 20.3C8.7 19.7477 8.25228 19.3 7.7 19.3V21.3ZM3.55 24.5C3.55 25.0523 3.99771 25.5 4.55 25.5C5.10228 25.5 5.55 25.0523 5.55 24.5H3.55ZM3.5 15.1C2.94772 15.1 2.5 15.5477 2.5 16.1C2.5 16.6523 2.94772 17.1 3.5 17.1V15.1ZM6.65 17.1C7.20228 17.1 7.65 16.6523 7.65 16.1C7.65 15.5477 7.20228 15.1 6.65 15.1V17.1ZM21.35 15.1C20.7977 15.1 20.35 15.5477 20.35 16.1C20.35 16.6523 20.7977 17.1 21.35 17.1V15.1ZM24.5 17.1C25.0523 17.1 25.5 16.6523 25.5 16.1C25.5 15.5477 25.0523 15.1 24.5 15.1V17.1ZM21.35 10.9C20.7977 10.9 20.35 11.3477 20.35 11.9C20.35 12.4523 20.7977 12.9 21.35 12.9V10.9ZM25.5 7.7C25.5 7.14771 25.0523 6.7 24.5 6.7C23.9477 6.7 23.5 7.14771 23.5 7.7H25.5ZM6.65 12.9C7.20228 12.9 7.65 12.4523 7.65 11.9C7.65 11.3477 7.20228 10.9 6.65 10.9V12.9ZM4.5 7.7C4.5 7.14771 4.05228 6.7 3.5 6.7C2.94772 6.7 2.5 7.14771 2.5 7.7H4.5ZM10.1429 6.30711C10.5334 6.69763 11.1666 6.69763 11.5571 6.30711C11.9476 5.91658 11.9476 5.28342 11.5571 4.89289L10.1429 6.30711ZM9.45711 2.79289C9.06658 2.40237 8.43342 2.40237 8.04289 2.79289C7.65237 3.18342 7.65237 3.81658 8.04289 4.20711L9.45711 2.79289ZM16.4429 4.89289C16.0524 5.28342 16.0524 5.91658 16.4429 6.30711C16.8334 6.69763 17.4666 6.69763 17.8571 6.30711L16.4429 4.89289ZM19.9571 4.20711C20.3476 3.81658 20.3476 3.18342 19.9571 2.79289C19.5666 2.40237 18.9334 2.40237 18.5429 2.79289L19.9571 4.20711ZM13 11.9L13 16.1L15 16.1L15 11.9H13ZM20.35 15.05C20.35 19.9652 17.2877 23.5 14 23.5V25.5C18.8309 25.5 22.35 20.5729 22.35 15.05H20.35ZM14 23.5C10.7123 23.5 7.65 19.9652 7.65 15.05H5.65C5.65 20.5729 9.1691 25.5 14 25.5V23.5ZM7.65 15.05C7.65 10.1347 10.7123 6.6 14 6.6V4.6C9.1691 4.6 5.65 9.52707 5.65 15.05H7.65ZM14 6.6C17.2877 6.6 20.35 10.1347 20.35 15.05H22.35C22.35 9.52707 18.8309 4.6 14 4.6V6.6ZM20.3 21.3C20.7845 21.3 21.2994 21.5595 21.7274 22.1302C22.1556 22.7011 22.45 23.5357 22.45 24.5H24.45C24.45 23.1448 24.0393 21.8793 23.3274 20.9302C22.6153 19.9807 21.5552 19.3 20.3 19.3V21.3ZM7.7 19.3C6.44482 19.3 5.38472 19.9807 4.67261 20.9301C3.96074 21.8793 3.55 23.1448 3.55 24.5H5.55C5.55 23.5356 5.84441 22.7011 6.27261 22.1301C6.70058 21.5595 7.21548 21.3 7.7 21.3V19.3ZM3.5 17.1H6.65V15.1H3.5V17.1ZM21.35 17.1H24.5V15.1H21.35V17.1ZM21.35 12.9C22.6052 12.9 23.6653 12.2193 24.3774 11.2698C25.0893 10.3207 25.5 9.05525 25.5 7.7H23.5C23.5 8.66435 23.2056 9.49891 22.7774 10.0698C22.3494 10.6405 21.8345 10.9 21.35 10.9V12.9ZM6.65 10.9C6.16548 10.9 5.65058 10.6405 5.22261 10.0698C4.79441 9.49891 4.5 8.66435 4.5 7.7H2.5C2.5 9.05525 2.91074 10.3207 3.62261 11.2698C4.33472 12.2193 5.39482 12.9 6.65 12.9V10.9ZM19.7133 8.99021C18.0284 10.211 16.0753 10.9 14 10.9V12.9C16.5335 12.9 18.8916 12.0554 20.8867 10.6098L19.7133 8.99021ZM14 10.9C11.9247 10.9 9.97158 10.211 8.28672 8.99021L7.11328 10.6098C9.10843 12.0554 11.4665 12.9 14 12.9V10.9ZM11.5571 4.89289L9.45711 2.79289L8.04289 4.20711L10.1429 6.30711L11.5571 4.89289ZM17.8571 6.30711L19.9571 4.20711L18.5429 2.79289L16.4429 4.89289L17.8571 6.30711Z" fill="#05011C"/>
</svg>
