<svg width="20" height="20" viewBox="0 0 20 20" fill="none" xmlns="http://www.w3.org/2000/svg">
<path d="M5.83398 15V12.9166M5.83398 12.9166V11.6666C5.83398 11.2738 5.83398 11.0774 5.96213 10.9554C6.09027 10.8333 6.29651 10.8333 6.70898 10.8333H7.29232C7.89638 10.8333 8.38607 11.2997 8.38607 11.875C8.38607 12.4503 7.89638 12.9166 7.29232 12.9166H5.83398ZM17.5007 10.8333H16.4069C15.7194 10.8333 15.3757 10.8333 15.1621 11.0367C14.9486 11.2401 14.9486 11.5675 14.9486 12.2222V12.9166M14.9486 15V12.9166M14.9486 12.9166H16.7715M13.1257 12.9166C13.1257 14.0672 12.1463 15 10.9382 15C10.6656 15 10.5293 15 10.4277 14.9442C10.1847 14.8105 10.209 14.54 10.209 14.3055V11.5278C10.209 11.2933 10.1847 11.0228 10.4277 10.8891C10.5293 10.8333 10.6656 10.8333 10.9382 10.8333C12.1463 10.8333 13.1257 11.7661 13.1257 12.9166Z" stroke="#05011C" stroke-width="1.5" stroke-linecap="round" stroke-linejoin="round"/>
<path d="M12.4993 18.3333H8.93874C6.22107 18.3333 4.86224 18.3333 3.91857 17.6685C3.6482 17.478 3.40817 17.252 3.20577 16.9976C2.49935 16.1094 2.49935 14.8305 2.49935 12.2727V10.1515C2.49935 7.68218 2.49935 6.44753 2.89013 5.46144C3.51836 3.87616 4.84696 2.62572 6.53132 2.03444C7.57904 1.66665 8.89086 1.66665 11.5145 1.66665C13.0137 1.66665 13.7633 1.66665 14.362 1.87681C15.3245 2.21469 16.0837 2.92923 16.4427 3.8351C16.666 4.39858 16.666 5.1041 16.666 6.51513V8.33331" stroke="#05011C" stroke-width="1.5" stroke-linecap="round" stroke-linejoin="round"/>
<path d="M2.50065 10C2.50065 8.46588 3.7443 7.22222 5.27843 7.22222C5.83325 7.22222 6.48735 7.31944 7.02679 7.1749C7.50608 7.04647 7.88045 6.6721 8.00888 6.1928C8.15342 5.65336 8.05621 4.99926 8.05621 4.44444C8.05621 2.91032 9.29986 1.66667 10.834 1.66667" stroke="#05011C" stroke-width="1.5" stroke-linecap="round" stroke-linejoin="round"/>
</svg>
