<svg width="20" height="20" viewBox="0 0 20 20" fill="none" xmlns="http://www.w3.org/2000/svg">
<g clip-path="url(#clip0_47901_4153)">
<path d="M6.12765 15C4.35838 15 3.47375 15 2.84393 14.6224C2.43229 14.3755 2.10067 14.0226 1.88664 13.6035C1.55918 12.9623 1.6472 12.1145 1.82325 10.4188C1.97021 9.00324 2.04369 8.29548 2.40505 7.77569C2.64229 7.43443 2.96318 7.15472 3.33933 6.9613C3.91225 6.66669 4.65071 6.66669 6.12765 6.66669H13.8711C15.348 6.66669 16.0865 6.66669 16.6594 6.9613C17.0355 7.15472 17.3564 7.43443 17.5937 7.77569C17.955 8.29548 18.0285 9.00324 18.1755 10.4188C18.3515 12.1145 18.4395 12.9623 18.1121 13.6035C17.898 14.0226 17.5664 14.3755 17.1548 14.6224C16.525 15 15.6403 15 13.8711 15" stroke="#05011C" stroke-width="1.5"/>
<path d="M14.1654 6.66669V5.00002C14.1654 3.42867 14.1654 2.643 13.6772 2.15484C13.1891 1.66669 12.4034 1.66669 10.832 1.66669H9.16536C7.59402 1.66669 6.80834 1.66669 6.32019 2.15484C5.83203 2.643 5.83203 3.42867 5.83203 5.00002V6.66669" stroke="#05011C" stroke-width="1.5" stroke-linejoin="round"/>
<path d="M11.6559 13.3334L8.34146 13.3334C7.77038 13.3334 7.48484 13.3334 7.24189 13.4241C6.91796 13.545 6.64058 13.78 6.45386 14.0916C6.31382 14.3254 6.24457 14.6259 6.10606 15.227C5.88964 16.1663 5.78143 16.6359 5.85503 17.0125C5.95316 17.5145 6.259 17.9395 6.68413 18.1646C7.00297 18.3334 7.44913 18.3334 8.34146 18.3334L11.6559 18.3334C12.5483 18.3334 12.9944 18.3334 13.3133 18.1646C13.7384 17.9395 14.0442 17.5145 14.1424 17.0125C14.216 16.6359 14.1078 16.1663 13.8913 15.227C13.7528 14.6259 13.6836 14.3254 13.5435 14.0916C13.3568 13.78 13.0794 13.545 12.7555 13.4241C12.5126 13.3334 12.227 13.3334 11.6559 13.3334Z" stroke="#05011C" stroke-width="1.5" stroke-linejoin="round"/>
<path d="M15 10H15.0075" stroke="#05011C" stroke-width="2" stroke-linecap="round" stroke-linejoin="round"/>
</g>
<defs>
<clipPath id="clip0_47901_4153">
<rect width="20" height="20" fill="white"/>
</clipPath>
</defs>
</svg>
