<svg width="20" height="20" viewBox="0 0 20 20" fill="none" xmlns="http://www.w3.org/2000/svg">
<g clip-path="url(#clip0_43980_6527)">
<path d="M1.66602 11.1905L1.66602 6.66669L18.3327 6.66669V11.1905C18.3327 14.5577 18.3327 16.2413 17.2479 17.2873C16.1631 18.3334 14.4172 18.3334 10.9253 18.3334H9.07342C5.58154 18.3334 3.83559 18.3334 2.75081 17.2873C1.66602 16.2413 1.66602 14.5577 1.66602 11.1905Z" stroke="#05011C" stroke-width="1.5" stroke-linecap="round" stroke-linejoin="round"/>
<path d="M1.66602 6.66669L2.4673 4.74361C3.08874 3.25216 3.39945 2.50644 4.02927 2.08656C4.65908 1.66669 5.46695 1.66669 7.08268 1.66669L12.916 1.66669C14.5318 1.66669 15.3396 1.66669 15.9694 2.08656C16.5992 2.50644 16.91 3.25216 17.5314 4.74361L18.3327 6.66669" stroke="#05011C" stroke-width="1.5" stroke-linecap="round"/>
<path d="M10 6.66669L10 1.66669" stroke="#05011C" stroke-width="1.5" stroke-linecap="round"/>
<path d="M8.33203 10L11.6654 10" stroke="#05011C" stroke-width="1.5" stroke-linecap="round"/>
</g>
<defs>
<clipPath id="clip0_43980_6527">
<rect width="20" height="20" fill="white"/>
</clipPath>
</defs>
</svg>
