<svg width="12" height="12" viewBox="0 0 12 12" fill="none" xmlns="http://www.w3.org/2000/svg">
<path d="M1 10.747C1.64725 10.795 2.19183 10.25 2.66667 10.25C3.1415 10.25 3.91237 10.7527 4.33333 10.747C4.83849 10.7512 5.4302 10.25 6 10.25C6.5698 10.25 7.16151 10.7512 7.66667 10.747C8.31391 10.795 8.8585 10.25 9.33333 10.25C9.80817 10.25 10.579 10.7527 11 10.747" stroke="#666E80" stroke-linecap="round" stroke-linejoin="round"/>
<path d="M3 10.25C2.29107 9.36682 1.79143 8.23638 1.57867 7.63741C1.5112 7.44747 1.47747 7.3525 1.51664 7.26172C1.55582 7.17094 1.65188 7.12839 1.84401 7.04328L5.58861 5.38462C5.79122 5.29487 5.89252 5.25 6 5.25C6.10748 5.25 6.20878 5.29487 6.41139 5.38462L10.156 7.04328C10.3481 7.12839 10.4442 7.17094 10.4834 7.26172C10.5225 7.3525 10.4888 7.44747 10.4213 7.63741C10.2086 8.23638 9.70893 9.36682 9 10.25" stroke="#666E80" stroke-linecap="round" stroke-linejoin="round"/>
<path d="M3 6.5L3.10795 5.09661C3.17534 4.22057 3.20903 3.78256 3.49658 3.51628C3.78413 3.25 4.22344 3.25 5.10206 3.25L6.89794 3.25C7.77656 3.25 8.21587 3.25 8.50342 3.51628C8.79097 3.78256 8.82466 4.22057 8.89205 5.09661L9 6.5" stroke="#666E80" stroke-linecap="round" stroke-linejoin="round"/>
<path d="M4.25 3.25L4.33576 2.56395C4.41396 1.9383 4.45306 1.62548 4.66573 1.43774C4.8784 1.25 5.19366 1.25 5.82417 1.25H6.17583C6.80634 1.25 7.1216 1.25 7.33427 1.43774C7.54694 1.62548 7.58604 1.9383 7.66424 2.56395L7.75 3.25" stroke="#666E80" stroke-linecap="round" stroke-linejoin="round"/>
</svg>
