<svg width="12" height="10" viewBox="0 0 12 10" fill="none" xmlns="http://www.w3.org/2000/svg">
<path d="M10.387 8C10.7617 8 11.0597 7.76423 11.3272 7.43457C11.875 6.75972 10.9757 6.22042 10.6327 5.9563C10.284 5.68781 9.89471 5.53571 9.5 5.5M9 4.5C9.69036 4.5 10.25 3.94036 10.25 3.25C10.25 2.55964 9.69036 2 9 2" stroke="#666E80" stroke-linecap="round"/>
<path d="M1.61298 8C1.23833 8 0.940334 7.76423 0.672773 7.43457C0.125044 6.75972 1.02434 6.22042 1.36732 5.9563C1.71599 5.68781 2.10529 5.53571 2.5 5.5M2.75 4.5C2.05964 4.5 1.5 3.94036 1.5 3.25C1.5 2.55964 2.05964 2 2.75 2" stroke="#666E80" stroke-linecap="round"/>
<path d="M4.0419 6.55559C3.53101 6.8715 2.19149 7.51654 3.00735 8.32371C3.40589 8.71801 3.84976 9 4.40781 9H7.59219C8.15024 9 8.59411 8.71801 8.99265 8.32371C9.80851 7.51654 8.46899 6.8715 7.9581 6.55559C6.76007 5.8148 5.23993 5.8148 4.0419 6.55559Z" stroke="#666E80" stroke-linecap="round" stroke-linejoin="round"/>
<path d="M7.75 2.75C7.75 3.7165 6.9665 4.5 6 4.5C5.0335 4.5 4.25 3.7165 4.25 2.75C4.25 1.7835 5.0335 1 6 1C6.9665 1 7.75 1.7835 7.75 2.75Z" stroke="#666E80"/>
</svg>
