<svg width="20" height="20" viewBox="0 0 20 20" fill="none" xmlns="http://www.w3.org/2000/svg">
<path d="M17.3117 15C17.9361 15 18.4328 14.6071 18.8787 14.0576C19.7916 12.9329 18.2928 12.034 17.7211 11.5938C17.14 11.1463 16.4912 10.8928 15.8333 10.8333M15 9.16667C16.1506 9.16667 17.0833 8.23393 17.0833 7.08333C17.0833 5.93274 16.1506 5 15 5" stroke="#05011C" stroke-width="1.5" stroke-linecap="round"/>
<path d="M2.68895 15C2.06453 15 1.56787 14.6071 1.12194 14.0576C0.209058 12.9329 1.70788 12.034 2.27952 11.5938C2.86063 11.1463 3.50947 10.8928 4.16732 10.8333M4.58398 9.16667C3.43339 9.16667 2.50065 8.23393 2.50065 7.08333C2.50065 5.93274 3.43339 5 4.58398 5" stroke="#05011C" stroke-width="1.5" stroke-linecap="round"/>
<path d="M6.73715 12.5927C5.88567 13.1192 3.65314 14.1943 5.0129 15.5396C5.67713 16.1968 6.41692 16.6667 7.34701 16.6667H12.6543C13.5844 16.6667 14.3242 16.1968 14.9884 15.5396C16.3482 14.1943 14.1156 13.1192 13.2641 12.5927C11.2674 11.3581 8.73387 11.3581 6.73715 12.5927Z" stroke="#05011C" stroke-width="1.5" stroke-linecap="round" stroke-linejoin="round"/>
<path d="M12.9173 6.25004C12.9173 7.86087 11.6115 9.16671 10.0007 9.16671C8.38982 9.16671 7.08398 7.86087 7.08398 6.25004C7.08398 4.63921 8.38982 3.33337 10.0007 3.33337C11.6115 3.33337 12.9173 4.63921 12.9173 6.25004Z" stroke="#05011C" stroke-width="1.5"/>
</svg>
